{
  "accessors": [
    {
      "bufferView": 2,
      "componentType": 5126,
      "count": 15428,
      "max": [
        571.43475341796875,
        704.78271484375,
        348.409423828125
      ],
      "min": [
        -55.0750732421875,
        213.60881042480469,
        214.13568115234375
      ],
      "type": "VEC3"
    },
    {
      "bufferView": 2,
      "byteOffset": 185136,
      "componentType": 5126,
      "count": 15428,
      "max": [
        0.99994570016860962,
        0.99999958276748657,
        0.99994409084320068
      ],
      "min": [
        -0.99999850988388062,
        -0.9999995231628418,
        -0.99994421005249023
      ],
      "type": "VEC3"
    },
    {
      "bufferView": 0,
      "componentType": 5125,
      "count": 63336,
      "max": [
        15427
      ],
      "min": [
        0
      ],
      "type": "SCALAR"
    },
    {
      "bufferView": 2,
      "byteOffset": 370272,
      "componentType": 5126,
      "count": 21919,
      "max": [
        320.407958984375,
        213.45945739746094,
        782.763916015625
      ],
      "min": [
        -584.66455078125,
        -718.109619140625,
        171.38296508789062
      ],
      "type": "VEC3"
    },
    {
      "bufferView": 2,
      "byteOffset": 633300,
      "componentType": 5126,
      "count": 21919,
      "max": [
        0.99999219179153442,
        0.99991780519485474,
        0.99999094009399414
      ],
      "min": [
        -0.99973875284194946,
        -0.99917972087860107,
        -0.99999749660491943
      ],
      "type": "VEC3"
    },
    {
      "bufferView": 3,
      "componentType": 5126,
      "count": 21919,
      "max": [
        0.99992829561233521,
        0.99965411424636841,
        0.99984049797058105,
        1
      ],
      "min": [
        -0.99987494945526123,
        -0.99999672174453735,
        -0.99993652105331421,
        -1
      ],
      "type": "VEC4"
    },
    {
      "bufferView": 1,
      "componentType": 5126,
      "count": 21919,
      "max": [
        2.2698419094085693,
        1.7372130155563354
      ],
      "min": [
        -0,
        0
      ],
      "type": "VEC2"
    },
    {
      "bufferView": 0,
      "byteOffset": 253344,
      "componentType": 5125,
      "count": 121104,
      "max": [
        21918
      ],
      "min": [
        0
      ],
      "type": "SCALAR"
    },
    {
      "bufferView": 2,
      "byteOffset": 896328,
      "componentType": 5126,
      "count": 14187,
      "max": [
        585.09698486328125,
        718.53076171875,
        400.405029296875
      ],
      "min": [
        -166.1585693359375,
        13.6671142578125,
        209.23202514648438
      ],
      "type": "VEC3"
    },
    {
      "bufferView": 2,
      "byteOffset": 1066572,
      "componentType": 5126,
      "count": 14187,
      "max": [
        0.99940866231918335,
        0.99954795837402344,
        0.99998503923416138
      ],
      "min": [
        -0.99973917007446289,
        -0.99999773502349854,
        -0.99999994039535522
      ],
      "type": "VEC3"
    },
    {
      "bufferView": 3,
      "byteOffset": 350704,
      "componentType": 5126,
      "count": 14187,
      "max": [
        0.99834918975830078,
        0.99989748001098633,
        0.99545276165008545,
        1
      ],
      "min": [
        -0.99998539686203003,
        -0.99928176403045654,
        -0.99544376134872437,
        1
      ],
      "type": "VEC4"
    },
    {
      "bufferView": 1,
      "byteOffset": 175352,
      "componentType": 5126,
      "count": 14187,
      "max": [
        2.2698419094085693,
        1.8339420557022095
      ],
      "min": [
        -0,
        0
      ],
      "type": "VEC2"
    },
    {
      "bufferView": 0,
      "byteOffset": 737760,
      "componentType": 5125,
      "count": 72576,
      "max": [
        14186
      ],
      "min": [
        0
      ],
      "type": "SCALAR"
    },
    {
      "bufferView": 2,
      "byteOffset": 1236816,
      "componentType": 5126,
      "count": 6191,
      "max": [
        320.468017578125,
        213.568603515625,
        233.95367431640625
      ],
      "min": [
        -482.75140380859375,
        -597.97760009765625,
        0
      ],
      "type": "VEC3"
    },
    {
      "bufferView": 2,
      "byteOffset": 1311108,
      "componentType": 5126,
      "count": 6191,
      "max": [
        0.99976527690887451,
        0.99976801872253418,
        0.073115140199661255
      ],
      "min": [
        -0.99976223707199097,
        -0.99970096349716187,
        -1
      ],
      "type": "VEC3"
    },
    {
      "bufferView": 3,
      "byteOffset": 577696,
      "componentType": 5126,
      "count": 6191,
      "max": [
        0.99999850988388062,
        0.99999666213989258,
        0.89818918704986572,
        1
      ],
      "min": [
        -0.99999958276748657,
        -0.99999868869781494,
        -0.89819294214248657,
        1
      ],
      "type": "VEC4"
    },
    {
      "bufferView": 1,
      "byteOffset": 288848,
      "componentType": 5126,
      "count": 6191,
      "max": [
        1.0076110363006592,
        0.94314801692962646
      ],
      "min": [
        -0.0076109999790787697,
        0.056910999119281769
      ],
      "type": "VEC2"
    },
    {
      "bufferView": 0,
      "byteOffset": 1028064,
      "componentType": 5125,
      "count": 31152,
      "max": [
        6190
      ],
      "min": [
        0
      ],
      "type": "SCALAR"
    },
    {
      "bufferView": 2,
      "byteOffset": 1385400,
      "componentType": 5126,
      "count": 6234,
      "max": [
        563.59454345703125,
        697.2515869140625,
        224.72634887695312
      ],
      "min": [
        -143.4273681640625,
        35.77349853515625,
        3.0999999580672011e-05
      ],
      "type": "VEC3"
    },
    {
      "bufferView": 2,
      "byteOffset": 1460208,
      "componentType": 5126,
      "count": 6234,
      "max": [
        0.99976521730422974,
        0.99976778030395508,
        0.061237867921590805
      ],
      "min": [
        -0.99976521730422974,
        -0.99976778030395508,
        -1
      ],
      "type": "VEC3"
    },
    {
      "bufferView": 3,
      "byteOffset": 676752,
      "componentType": 5126,
      "count": 6234,
      "max": [
        0.99999946355819702,
        0.99999654293060303,
        0.84550380706787109,
        1
      ],
      "min": [
        -0.9999995231628418,
        -0.99999654293060303,
        -0.84549182653427124,
        1
      ],
      "type": "VEC4"
    },
    {
      "bufferView": 1,
      "byteOffset": 338376,
      "componentType": 5126,
      "count": 6234,
      "max": [
        0.9182170033454895,
        0.82933998107910156
      ],
      "min": [
        0.081782996654510498,
        0.17066000401973724
      ],
      "type": "VEC2"
    },
    {
      "bufferView": 0,
      "byteOffset": 1152672,
      "componentType": 5125,
      "count": 31152,
      "max": [
        6233
      ],
      "min": [
        0
      ],
      "type": "SCALAR"
    },
    {
      "bufferView": 2,
      "byteOffset": 1535016,
      "componentType": 5126,
      "count": 65532,
      "max": [
        314.02371215820312,
        207.69480895996094,
        733.0714111328125
      ],
      "min": [
        -585.0970458984375,
        -663.911865234375,
        184.34500122070312
      ],
      "type": "VEC3"
    },
    {
      "bufferView": 2,
      "byteOffset": 2321400,
      "componentType": 5126,
      "count": 65532,
      "max": [
        0.99999254941940308,
        0.99997425079345703,
        0.99999743700027466
      ],
      "min": [
        -0.99999392032623291,
        -0.99997526407241821,
        -1
      ],
      "type": "VEC3"
    },
    {
      "bufferView": 0,
      "byteOffset": 1277280,
      "componentType": 5125,
      "count": 269013,
      "max": [
        65531
      ],
      "min": [
        0
      ],
      "type": "SCALAR"
    },
    {
      "bufferView": 2,
      "byteOffset": 3107784,
      "componentType": 5126,
      "count": 15530,
      "max": [
        246.83859252929688,
        -319.45059204101562,
        776.091796875
      ],
      "min": [
        -578.8408203125,
        -718.53076171875,
        185.95016479492188
      ],
      "type": "VEC3"
    },
    {
      "bufferView": 2,
      "byteOffset": 3294144,
      "componentType": 5126,
      "count": 15530,
      "max": [
        0.99998176097869873,
        0.9999956488609314,
        0.99999010562896729
      ],
      "min": [
        -0.9999924898147583,
        -0.99988442659378052,
        -0.99999731779098511
      ],
      "type": "VEC3"
    },
    {
      "bufferView": 0,
      "byteOffset": 2353332,
      "componentType": 5125,
      "count": 63735,
      "max": [
        15529
      ],
      "min": [
        0
      ],
      "type": "SCALAR"
    }
  ],
  "asset": {
    "extras": {
      "author": "Arion Digital (https://sketchfab.com/andrewswihart)",
      "license": "CC-BY-4.0 (http://creativecommons.org/licenses/by/4.0/)",
      "source": "https://sketchfab.com/3d-models/minotti-aston-armchair-d9716970474b42eaaf49d8156ffd1c65",
      "title": "Minotti Aston Armchair"
    },
    "generator": "Sketchfab-7.30.0",
    "version": "2.0"
  },
  "bufferViews": [
    {
      "buffer": 0,
      "byteLength": 2608272,
      "byteOffset": 0,
      "name": "floatBufferViews",
      "target": 34963
    },
    {
      "buffer": 0,
      "byteLength": 388248,
      "byteOffset": 2608272,
      "byteStride": 8,
      "name": "floatBufferViews",
      "target": 34962
    },
    {
      "buffer": 0,
      "byteLength": 3480504,
      "byteOffset": 2996520,
      "byteStride": 12,
      "name": "floatBufferViews",
      "target": 34962
    },
    {
      "buffer": 0,
      "byteLength": 776496,
      "byteOffset": 6477024,
      "byteStride": 16,
      "name": "floatBufferViews",
      "target": 34962
    }
  ],
  "buffers": [
    {
      "byteLength": 7253520,
      "uri": "scene.bin"
    }
  ],
  "extensionsRequired": [
    "KHR_materials_pbrSpecularGlossiness"
  ],
  "extensionsUsed": [
    "KHR_materials_pbrSpecularGlossiness"
  ],
  "materials": [
    {
      "doubleSided": true,
      "emissiveFactor": [
        0,
        0,
        0
      ],
      "extensions": {
        "KHR_materials_pbrSpecularGlossiness": {
          "diffuseFactor": [
            0.031372999999999998,
            0.43137300000000001,
            0.52941199999999999,
            1
          ],
          "glossinessFactor": 0.083244498050190463,
          "specularFactor": [
            0,
            0,
            0
          ]
        }
      },
      "name": "wire_008110135"
    },
    {
      "doubleSided": true,
      "emissiveFactor": [
        0,
        0,
        0
      ],
      "extensions": {
        "KHR_materials_pbrSpecularGlossiness": {
          "diffuseFactor": [
            0.21609460824933577,
            0.0024079335911009318,
            0.010007269278860247,
            1
          ],
          "glossinessFactor": 0.83469597198678258,
          "specularFactor": [
            0.089832329900009833,
            0.089832329900009833,
            0.089832329900009833
          ]
        }
      },
      "name": "wire_087224198"
    },
    {
      "doubleSided": true,
      "extensions": {
        "KHR_materials_pbrSpecularGlossiness": {
          "diffuseFactor": [
            0.98996368808639268,
            0.98996368808639268,
            0.98996368808639268,
            1
          ],
          "glossinessFactor": 1,
          "specularFactor": [
            1,
            1,
            1
          ]
        }
      },
      "name": "wire_115115115"
    },
    {
      "doubleSided": true,
      "emissiveFactor": [
        0,
        0,
        0
      ],
      "extensions": {
        "KHR_materials_pbrSpecularGlossiness": {
          "diffuseFactor": [
            0.83921599999999996,
            0.89411799999999997,
            0.59999999999999998,
            1
          ],
          "glossinessFactor": 0.083244498050190463,
          "specularFactor": [
            0,
            0,
            0
          ]
        }
      },
      "name": "wire_214228153"
    }
  ],
  "meshes": [
    {
      "primitives": [
        {
          "attributes": {
            "NORMAL": 1,
            "POSITION": 0
          },
          "indices": 2,
          "material": 0,
          "mode": 4
        }
      ]
    },
    {
      "primitives": [
        {
          "attributes": {
            "NORMAL": 4,
            "POSITION": 3,
            "TANGENT": 5,
            "TEXCOORD_0": 6
          },
          "indices": 7,
          "material": 1,
          "mode": 4
        }
      ]
    },
    {
      "primitives": [
        {
          "attributes": {
            "NORMAL": 9,
            "POSITION": 8,
            "TANGENT": 10,
            "TEXCOORD_0": 11
          },
          "indices": 12,
          "material": 1,
          "mode": 4
        }
      ]
    },
    {
      "primitives": [
        {
          "attributes": {
            "NORMAL": 14,
            "POSITION": 13,
            "TANGENT": 15,
            "TEXCOORD_0": 16
          },
          "indices": 17,
          "material": 2,
          "mode": 4
        }
      ]
    },
    {
      "primitives": [
        {
          "attributes": {
            "NORMAL": 19,
            "POSITION": 18,
            "TANGENT": 20,
            "TEXCOORD_0": 21
          },
          "indices": 22,
          "material": 2,
          "mode": 4
        }
      ]
    },
    {
      "primitives": [
        {
          "attributes": {
            "NORMAL": 24,
            "POSITION": 23
          },
          "indices": 25,
          "material": 3,
          "mode": 4
        }
      ]
    },
    {
      "primitives": [
        {
          "attributes": {
            "NORMAL": 27,
            "POSITION": 26
          },
          "indices": 28,
          "material": 3,
          "mode": 4
        }
      ]
    }
  ],
  "nodes": [
    {
      "children": [
        1
      ],
      "name": "RootNode (gltf orientation matrix)",
      "rotation": [
        -0.70710678118654746,
        -0,
        -0,
        0.70710678118654757
      ]
    },
    {
      "children": [
        2
      ],
      "name": "RootNode (model correction matrix)"
    },
    {
      "children": [
        3,
        4,
        5,
        6,
        7,
        8,
        9
      ],
      "name": "Minotti_Aston_Armchair__vray.obj.cleaner.materialmerger.gles"
    },
    {
      "mesh": 0,
      "name": ""
    },
    {
      "mesh": 1,
      "name": ""
    },
    {
      "mesh": 2,
      "name": ""
    },
    {
      "mesh": 3,
      "name": ""
    },
    {
      "mesh": 4,
      "name": ""
    },
    {
      "mesh": 5,
      "name": ""
    },
    {
      "mesh": 6,
      "name": ""
    }
  ],
  "scene": 0,
  "scenes": [
    {
      "name": "OSG_Scene",
      "nodes": [
        0
      ]
    }
  ]
}

